<svg width="100" height="99" viewBox="0 0 100 99" fill="none" xmlns="http://www.w3.org/2000/svg">
<path d="M50 0L53.6385 32.8824L70.3368 4.32273L60.2862 35.8422L87.1572 16.5435L65.1554 41.25L97.5528 34.5491L67.4041 48.1708L99.7261 55.2264L66.6435 55.4078L93.3013 75L63.005 61.7098L79.3893 90.4509L57.1179 65.987L60.3956 98.9074L50 67.5L39.6044 98.9074L42.8821 65.987L20.6107 90.4509L36.995 61.7098L6.69873 75L33.3565 55.4078L0.273907 55.2264L32.5959 48.1708L2.44717 34.5491L34.8446 41.25L12.8428 16.5435L39.7138 35.8422L29.6632 4.32273L46.3615 32.8824L50 0Z" fill="#FCD043"/>
</svg>
